ply
format ascii 1.0
comment VCGLIB generated
element vertex 299
property float x
property float y
property float z
property float nx
property float ny
property float nz
element face 550
property list uchar int vertex_indices
end_header
-4.134277 1.678948 -3.352016e-05 0.1837478 0.7286885 0.6597347 
-4.148845 1.687573 -0.01501318 -0.52754 0.8352221 0.15526 
-4.212475 1.615537 -0.0219914 -0.8286731 0.3361628 0.4475438 
-4.145534 1.567394 0.04155657 -0.02409531 0.1444109 0.9892244 
-4.148123 1.114788 -0.03936232 -0.2265609 -0.9180408 -0.3253788 
-4.174288 1.140195 -0.05759052 -0.6818138 -0.330099 -0.6528128 
-4.142304 1.140195 -0.07030841 -0.06437127 -0.5122677 -0.8564101 
-4.203524 1.606806 -0.07048908 -0.6493377 0.4378783 -0.6217903 
-4.143939 1.688808 -0.0256933 0.1838358 0.9568267 -0.2251378 
-4.129039 1.676664 -0.03229604 0.455315 0.6383482 -0.6206447 
-4.121122 1.578777 -0.09620884 0.2667201 0.342397 -0.9009022 
-4.186314 1.151546 -0.03762328 -0.8519727 -0.5135832 0.1018569 
-4.193026 1.210494 -0.009368375 -0.9919586 -0.05172496 0.1155113 
-4.181895 1.211442 -0.0660024 -0.6426005 -0.1002835 -0.7596104 
-4.115919 1.663596 -0.004464766 0.5168234 0.5382885 0.665687 
-4.077154 1.610664 0.01436695 0.7743787 0.4009986 0.489426 
-4.130009 1.110663 -0.02289679 0.04686312 -0.9731238 0.2254638 
-4.141716 1.178257 0.03277121 -0.3320796 -0.2574183 0.9074464 
-4.172223 1.154158 0.007931076 -0.6528463 -0.4721633 0.5923289 
-4.118317 1.671071 -0.01397846 0.7149828 0.6969773 0.0549755 
-4.068392 1.590371 -0.02696849 0.7933953 0.5197213 -0.3168814 
-4.091505 1.141489 0.007889222 0.6022656 -0.3647961 0.7100705 
-4.068304 1.18041 -0.05094682 0.8828705 -0.3416457 -0.3222079 
-4.11132 1.154158 -0.07155009 0.395969 -0.5627965 -0.7255815 
-4.123957 1.221968 -0.08912121 0.08828291 -0.1129688 -0.9896687 
-4.049979 1.548165 -0.05231846 0.8926737 0.1636261 -0.4199527 
-4.121146 1.544116 -0.09650506 0.1125162 -0.02236548 -0.9933982 
-4.196627 1.533017 -0.08987512 -0.6883876 0.0003902215 -0.725343 
-4.211143 1.556518 -0.01939613 -0.9460638 -0.02804797 0.3227643 
-4.07687 1.56895 0.01508188 0.7644498 -0.01730114 0.6444511 
-3.9826 1.466764 -0.1005472 0.4654078 0.8821009 0.07275631 
-3.99228 1.398019 -0.1494675 0.2442462 0.1870682 -0.9514985 
-4.018675 1.415019 -0.1403495 -0.6058881 0.4520103 -0.654665 
-4.125082 1.12484 -0.03661128 -0.3476393 0.06255965 -0.935539 
-4.136447 1.156232 -0.01304147 -0.6748374 0.2120676 -0.7068394 
-4.115763 1.157037 -0.02558353 -0.2680486 0.5594249 -0.7843428 
-3.961789 1.420015 -0.1104063 0.9290093 0.2379391 -0.2834199 
-3.962428 1.379066 -0.07359438 0.9631852 0.1045289 0.2476853 
-3.958467 1.372439 -0.1080886 0.9461133 -0.2337916 -0.2240783 
-4.132705 1.092386 -0.02388898 -0.55068 -0.7379097 -0.3901806 
-4.089339 1.130843 -0.02858105 0.7042601 -0.2823399 -0.6513847 
-4.086177 1.117276 -0.001473941 0.7070801 -0.6811355 0.1899797 
-4.107752 1.171115 -0.0882742 -0.5882935 0.1240639 -0.7990738 
-4.074271 1.158019 -0.09955914 0.2362419 -0.405761 -0.8829201 
-4.114422 1.116449 -0.07665667 -0.1106809 -0.5927715 -0.7977291 
-4.126269 1.128415 -0.0783468 -0.6226167 -0.3846769 -0.6814486 
-4.041045 1.398696 -0.07829317 -0.8047994 0.4622385 0.3723352 
-4.124862 1.105329 -0.03809083 -0.4720952 -0.8097371 0.3484996 
-4.120432 1.159892 -0.04316891 -0.8409824 0.3749357 0.3900922 
-4.145061 1.140307 -0.05650127 -0.9836761 0.1699275 -0.05921074 
-3.995349 1.416544 -0.05186342 0.07226702 0.454069 0.8880309 
-4.099311 1.130164 -0.01899808 -0.323503 0.002518482 0.9462239 
-3.975303 1.394207 -0.05781377 0.758024 0.3626643 0.5421016 
-4.052481 1.139276 -0.02759464 0.5520267 -0.5461606 0.6300597 
-4.0849 1.109954 -0.06770472 0.3656572 -0.8806732 -0.3011803 
-4.041234 1.157231 -0.07479352 0.7299395 -0.5360059 -0.4241299 
-3.965339 1.362019 -0.05133495 0.8168718 -0.004433686 0.5768023 
-3.96591 1.351294 -0.1050162 0.8922858 -0.3473565 -0.2883913 
-4.05235 1.27345 0.08423993 0.9464555 -0.1931878 0.2586512 
-4.052963 1.285088 0.06122139 0.7660545 0.2188128 -0.6043853 
-4.049266 1.311942 0.07868503 0.9257682 0.3620967 -0.1088087 
-3.966424 1.376622 -0.1286445 0.790981 -0.1108058 -0.6017235 
-3.996058 1.348378 -0.1447838 0.3097799 -0.2939863 -0.9042171 
-4.032533 1.379703 -0.1333798 -0.7341596 0.133947 -0.6656334 
-4.004768 1.39134 -0.0476567 -0.1474214 0.1811276 0.9723476 
-4.254081 1.437027 0.03004042 -0.1935897 0.9799479 0.04717305 
-4.300939 1.341797 0.04253235 -0.9182122 0.07393773 0.3891268 
-4.272319 1.351481 0.06947736 -0.2196007 0.1385138 0.9657067 
-4.163445 1.100857 -0.02092369 0.1582109 -0.9530537 -0.2581824 
-4.209244 1.12666 0.002451453 -0.483702 -0.784918 0.3872161 
-4.211795 1.130081 -0.02746085 -0.6678222 -0.6921508 -0.2737534 
-4.283269 1.340324 -0.0271166 -0.7393952 0.311511 -0.5968717 
-4.114444 1.132566 0.03217363 -0.1103843 -0.5547749 0.8246455 
-4.199211 1.159678 0.03733402 -0.2505762 -0.4666345 0.8482122 
-4.233943 1.153932 0.006055053 -0.8538638 -0.5051888 0.1253038 
-4.196485 1.350393 0.04658415 0.7573761 0.2667797 0.595995 
-4.146246 1.160146 0.0173257 0.5840713 -0.3182243 0.7467223 
-4.195201 1.380736 -0.009725805 0.7011372 0.6300362 -0.3338579 
-4.139021 1.14829 -0.0301131 0.9787029 -0.03665946 -0.2019821 
-4.217354 1.366438 -0.03423648 -0.0494001 0.7276387 -0.6841795 
-4.176019 1.163072 -0.06846177 0.2497095 -0.188473 -0.9498016 
-4.202821 1.138884 -0.0486923 -0.4095837 -0.574541 -0.708621 
-4.22923 1.166891 -0.04323206 -0.7380186 -0.360856 -0.5701856 
-4.221786 1.345692 -0.06008685 0.002063369 0.3483383 -0.9373667 
-4.278599 1.32338 -0.02926717 -0.7722259 -0.1870184 -0.6071996 
-4.301215 1.304302 0.02530953 -0.9292462 -0.2972092 0.2194725 
-4.074018 1.2846 0.1064753 0.3897139 -0.1932874 0.9004238 
-4.067492 1.330492 0.09794684 0.1658225 0.9083237 0.3839934 
-4.089711 1.309864 0.1028892 -0.6404181 0.141832 0.7548168 
-4.261719 1.323354 0.06615222 -0.1572264 -0.2090662 0.9651794 
-4.188727 1.360563 -0.01208524 0.9056502 0.2721112 -0.3251973 
-4.146246 1.129766 0.01128042 -0.9152807 -0.2679551 0.300768 
-4.144735 1.146425 -0.001333073 -0.9029983 -0.06314364 -0.4249788 
-4.09936 1.308837 0.07114769 -0.6970696 0.6763918 -0.2378826 
-4.061988 1.318428 0.07296309 0.1989012 0.7755013 -0.5991961 
-4.077123 1.292799 0.0487173 0.1257025 0.5360801 -0.8347557 
-4.146217 1.169783 -0.003375411 -0.8448471 0.2577229 -0.4688414 
-4.112043 1.170441 -0.01876408 -0.03511498 0.4535013 -0.8905636 
-4.105726 1.150804 -0.03660515 0.09876551 0.4007672 -0.9108408 
-4.079085 1.163774 -0.012372 0.7460613 0.2538242 -0.6156021 
-4.080663 1.139698 0.01134755 0.8637007 -0.3885123 0.3210597 
-4.141984 1.145738 0.01990893 -0.8353232 -0.03433088 0.5486863 
-4.230415 1.287659 -0.1018366 -0.0735767 0.8477569 -0.5252568 
-4.245308 1.234214 -0.1123297 -0.8366617 -0.07650164 -0.5423512 
-4.250473 1.241935 -0.09306173 -0.9541519 0.1216112 0.2735051 
-4.172351 1.106918 -0.04802935 0.3864843 -0.9149359 -0.1162846 
-4.196548 1.127063 -0.06315568 -0.6192393 -0.7347904 -0.2768138 
-4.182953 1.128446 -0.07383987 -0.09489012 -0.6928087 -0.714851 
-4.191802 1.24416 -0.1100077 0.4953549 0.4030907 -0.7695073 
-4.208745 1.234176 -0.122584 0.2389559 -0.03767922 -0.9702991 
-4.210414 1.147621 -0.05367922 -0.883111 -0.4309511 0.1854619 
-4.204992 1.141401 -0.07715353 -0.5133465 -0.610969 -0.6026545 
-4.220115 1.247434 -0.06477263 -0.198787 0.3670434 0.908715 
-4.187411 1.127435 -0.03507534 -0.4645386 -0.249918 0.8495557 
-4.194978 1.262771 -0.08137346 0.597873 0.725744 0.340358 
-4.163414 1.145972 -0.04339133 0.6476168 0.1208322 0.7523245 
-4.189086 1.253208 -0.09672343 0.5633455 0.7241369 -0.3978286 
-4.156013 1.150196 -0.07133895 0.9562942 -0.1237106 -0.2649472 
-4.171293 1.135558 -0.07635911 0.4421084 -0.5538202 -0.705566 
-4.18161 1.148028 -0.08901066 0.1520165 -0.4692809 -0.8698658 
-4.177737 1.241742 -0.1039273 0.7808694 0.3775727 -0.4976764 
-4.20599 1.225702 -0.1197309 0.2231249 -0.2333814 -0.9464399 
-4.22306 1.231093 -0.1233865 -0.198099 -0.02099429 -0.9799572 
-4.236279 1.214449 -0.1140887 -0.5449461 -0.4936684 -0.6777354 
-4.245266 1.228109 -0.08697534 -0.8984728 -0.2063116 0.3875333 
-4.191551 1.252762 -0.07751107 0.7135708 0.4047517 0.5718329 
-4.142694 1.453401 -0.1684359 0.2754385 0.8670813 -0.4150949 
-4.188284 1.382798 -0.1806558 -0.7056036 0.1324683 -0.6961147 
-4.193995 1.40116 -0.1542169 -0.88026 0.4419721 0.1726356 
-4.139729 1.40551 -0.1887688 0.2140874 0.1902425 -0.9581099 
-4.107241 1.366414 -0.1675939 0.6939375 0.08117411 -0.715445 
-4.13496 1.358009 -0.1878552 0.2849255 -0.278423 -0.917223 
-4.187854 1.163416 -0.03770426 -0.9924849 0.0242082 0.1199488 
-4.180563 1.146081 -0.07156932 -0.6475351 -0.3863281 -0.6568478 
-4.176753 1.105865 -0.04736339 -0.7007625 -0.5949997 -0.3935828 
-4.184422 1.120668 -0.03862015 -0.8900152 -0.3958711 0.2261838 
-4.151104 1.38864 -0.1030178 -0.09119892 0.5084026 0.8562766 
-4.148343 1.099492 -0.01848526 -0.09270703 -0.8286442 0.5520455 
-4.154902 1.154825 -0.003621615 -0.3386608 0.1467335 0.9293966 
-4.175194 1.134263 -0.01212885 -0.664545 -0.1714897 0.727304 
-4.105776 1.406057 -0.1303519 0.794214 0.4929956 0.3552176 
-4.122725 1.125536 -0.008194715 0.5928069 -0.053339 0.8035764 
-4.100377 1.382748 -0.1494244 0.8401063 0.3603416 -0.4054323 
-4.106943 1.132521 -0.05349364 0.8515727 -0.5020843 -0.1507826 
-4.155879 1.101978 -0.05470892 0.1102015 -0.8671131 -0.485768 
-4.14258 1.145276 -0.08775282 0.07817236 -0.516755 -0.8525569 
-4.089038 1.350566 -0.1530323 0.9092594 -0.005191795 -0.4161976 
-4.135535 1.337319 -0.1787154 0.204702 -0.3904595 -0.8975736 
-4.156829 1.361493 -0.1914541 -0.1223917 -0.1680454 -0.9781519 
-4.184973 1.333607 -0.172306 -0.6215829 -0.3464139 -0.7025896 
-4.194081 1.366744 -0.1368004 -0.9465777 0.1286196 0.2957156 
-4.106265 1.381441 -0.1187125 0.7635706 0.2325445 0.6023978 
-4.160216 1.183736 0.03673278 -0.139123 0.680926 0.7190165 
-4.139234 1.170987 0.02124274 0.8048599 0.5934487 0.00439385 
-4.147628 1.175239 0.01555093 0.1303438 0.7732518 -0.6205578 
-4.150093 1.101445 -0.01280688 0.1754044 -0.9116974 -0.3715388 
-4.141121 1.114112 -0.0109881 0.7285578 -0.1400755 -0.670509 
-4.140586 1.10985 -0.003993571 0.8701515 -0.4924842 -0.01719329 
-4.148354 1.167441 0.03533036 0.5065823 0.2999708 0.8083266 
-4.154183 1.154171 0.03791849 0.187991 -0.03851814 0.9814152 
-4.143073 1.157356 0.03468215 0.6605075 -0.1752347 0.730084 
-4.147473 1.126498 -0.01290428 0.3710903 0.2950368 -0.8804801 
-4.137874 1.122755 -0.005320115 0.9771318 -0.01169 -0.2123129 
-4.16661 1.165107 0.01597366 -0.8183703 0.3478176 -0.4574854 
-4.160819 1.118972 -0.01156347 -0.4644423 0.08779865 -0.8812404 
-4.169452 1.161271 0.03268471 -0.8698668 0.03808346 0.4918144 
-4.161167 1.107949 -0.003904767 -0.9006662 -0.4305738 -0.05836723 
-4.162272 1.156025 0.03675464 -0.2937262 0.09117459 0.9515315 
-4.152921 1.10718 0.008627832 -0.1414248 -0.8016719 0.5807936 
-4.143929 1.107966 0.002028748 0.5794401 -0.7430491 0.3348543 
-4.139963 1.116458 0.006897837 0.8295835 -0.394406 0.3952659 
-4.15896 1.14789 0.03907333 -0.1361612 -0.2993498 0.944378 
-4.14261 1.153309 0.03212281 0.7421373 -0.2850471 0.6066139 
-4.138895 1.161711 0.03016379 0.8324761 0.1681995 0.5279134 
-4.135426 1.160733 0.01879356 0.9885452 0.09317254 -0.1187321 
-4.147584 1.168339 0.01109251 0.1953631 0.5049421 -0.8407537 
-4.169135 1.156416 0.02954454 -0.9342555 -0.2731971 0.2291944 
-4.057243 1.245358 0.007269166 0.3008408 0.924825 0.2327951 
-4.086903 1.225261 0.004547611 -0.715681 0.4097073 0.5656331 
-4.076705 1.220052 0.01190606 -0.09219243 -0.1505188 0.9842991 
-4.089267 1.145807 -0.05065149 -0.3305959 -0.7276783 -0.6009915 
-4.097936 1.156914 -0.03739797 -0.8064105 -0.5350791 0.2517788 
-4.098375 1.162013 -0.04617353 -0.9239869 -0.1144465 -0.3648977 
-4.074531 1.236545 -0.008503646 -0.3762189 0.9209771 -0.1012946 
-4.069227 1.23041 -0.02482284 -0.08825381 0.8611102 -0.5007 
-4.082688 1.230932 -0.01856101 -0.5981346 0.6513209 -0.4669219 
-4.088431 1.160924 -0.02339671 -0.4190226 -0.5656161 0.7102806 
-4.099772 1.168691 -0.03125576 -0.9870452 -0.03875927 0.1556908 
-4.055122 1.210927 -0.0007594787 0.8046659 -0.35754 0.4740022 
-4.073186 1.155391 -0.03336585 0.3776669 -0.7935683 0.4770924 
-4.050121 1.226053 -0.01521394 0.9138191 0.3100449 -0.2623104 
-4.073555 1.157061 -0.04989684 0.8257778 -0.3939446 -0.403607 
-4.059206 1.228706 -0.02275942 0.4005165 0.822481 -0.4038707 
-4.082129 1.171625 -0.05764826 0.09528149 0.1008587 -0.9903277 
-4.093825 1.166727 -0.05210558 -0.633432 0.02679364 -0.7733344 
-4.096667 1.177696 -0.0455869 -0.828278 0.2832352 -0.4834598 
-4.064262 1.227046 -0.03266354 0.1934768 0.6551897 -0.7302693 
-4.084236 1.225898 -0.02133717 -0.7057962 0.5047891 -0.497031 
-4.087665 1.229443 -0.01080926 -0.7439153 0.6657231 -0.05833402 
-4.093522 1.217336 -0.004718961 -0.9748823 0.09385322 0.2019804 
-4.078447 1.211224 0.007170103 -0.2142281 -0.4586619 0.8624011 
-4.051697 1.219893 -0.01852194 0.9093647 -0.07522795 -0.4091414 
-4.090401 1.210517 -0.1050437 0.6037884 0.6316885 -0.4862194 
-4.118598 1.186736 -0.1111566 -0.6446368 0.4198921 -0.6388537 
-4.117815 1.194535 -0.1010061 -0.7011371 0.6873724 0.1895417 
-4.144555 1.089817 -0.07068776 -0.1809096 -0.9610329 0.2090155 
-4.155435 1.105571 -0.07820787 -0.9462361 -0.2918352 -0.1395334 
-4.142742 1.099734 -0.08550879 -0.4110319 -0.5648528 -0.7155376 
-4.090301 1.171934 -0.09951328 0.9346744 0.006693091 -0.3554419 
-4.094752 1.167394 -0.106845 0.6661633 -0.01127901 -0.7457207 
-4.152313 1.124509 -0.07331271 -0.9016045 0.3188502 0.2923078 
-4.15221 1.117216 -0.08575954 -0.7165649 -0.05540756 -0.6953163 
-4.10527 1.184898 -0.08382668 0.06420711 0.3751241 0.9247483 
-4.1355 1.117212 -0.06481399 -0.2602056 0.1125023 0.9589767 
-4.088855 1.18091 -0.09156215 0.9094454 0.04692771 0.413167 
-4.129043 1.102082 -0.06789437 0.5291964 -0.2816203 0.8004007 
-4.123547 1.09953 -0.08276428 0.6747429 -0.7193394 -0.1651452 
-4.135306 1.098155 -0.08626714 0.0227293 -0.7447608 -0.6669443 
-4.13327 1.109377 -0.09389625 -0.09179233 -0.4282818 -0.898971 
-4.090846 1.159752 -0.1026777 0.8554683 -0.2947838 -0.4257657 
-4.1076 1.163101 -0.1128174 0.09138037 -0.3228437 -0.9420306 
-4.111407 1.173959 -0.1158637 0.09446219 0.1271997 -0.9873688 
-4.123767 1.171237 -0.1114068 -0.6544843 0.03153051 -0.7554179 
-4.104852 1.169032 -0.114615 0.2023171 -0.1708602 -0.9643001 
-4.122088 1.184598 -0.09724972 -0.8167023 0.4776734 0.3237677 
-4.092054 1.173847 -0.08915977 0.749194 -0.1683904 0.640588 
-4.087234 1.212213 -0.04622745 -0.9078841 -0.4101031 0.08696065 
-4.08023 1.237187 -0.01886109 -0.7257932 -0.3375207 0.5994198 
-4.093735 1.243188 -0.03802786 -0.9720352 0.0385472 0.2316501 
-4.066573 1.183663 -0.05181204 -0.2388926 -0.9660349 0.09852405 
-4.08294 1.233938 -0.0760207 -0.604493 -0.1471765 -0.7828967 
-4.062366 1.226055 -0.07997962 0.3196589 -0.2439574 -0.9155889 
-4.019373 1.398356 -0.04329934 0.2441362 0.2763509 -0.9295309 
-4.044462 1.402709 -0.03914599 -0.6817226 0.354431 -0.6400258 
-4.034311 1.432147 -0.0307703 -0.2458702 0.6669331 -0.7033834 
-4.031924 1.236343 -0.04632898 0.948703 -0.3053576 -0.08197164 
-3.999342 1.404866 -0.0179095 0.8969156 0.2084647 -0.3899806 
-4.019158 1.445839 -0.00566601 0.1409247 0.9614916 0.2359536 
-4.00809 1.41989 0.006486543 0.7323363 0.05102472 0.6790287 
-4.049675 1.215877 -0.01946224 0.3989373 -0.5393392 0.7415944 
-4.066034 1.228068 -0.01470157 -0.3738745 -0.5701096 0.7315688 
-4.038026 1.407289 0.01332227 -0.3559217 0.2553273 0.8989593 
-4.040715 1.431307 -0.01680744 -0.7804525 0.6165537 0.1037084 
-4.057086 1.396654 -0.01457946 -0.9460015 0.3182075 0.06184715 
-4.073624 1.247542 -0.003973145 -0.4690928 -0.2299694 0.8526817 
-4.090612 1.258175 -0.03565126 -0.970826 0.1666733 0.1723861 
-4.094653 1.24292 -0.05336025 -0.9813891 -0.0114201 -0.19169 
-4.084656 1.267209 -0.06812386 -0.7182368 0.3009402 -0.6273522 
-4.055732 1.251185 -0.07528841 0.3775576 0.09420244 -0.9211819 
-4.045456 1.233789 -0.01645062 0.586731 -0.2336167 0.7753515 
-4.170069 1.325941 0.06093398 -0.6310843 0.6740047 -0.3839926 
-4.156878 1.312076 0.04162272 -0.1976934 0.6648416 -0.7203492 
-4.173254 1.307955 0.04602977 -0.6558827 0.3093524 -0.6885631 
-4.157774 1.339636 0.07891486 -0.01443639 0.9897419 0.1421355 
-4.18193 1.305734 0.07387526 -0.9209287 0.1463182 0.361222 
-4.170886 1.305888 0.08564599 -0.2392968 -0.07271413 0.9682199 
-4.146245 1.187156 0.03673863 -0.3737862 -0.5354013 0.7573833 
-4.159516 1.190378 0.02410486 -0.9640021 -0.2638659 0.03278391 
-4.152796 1.169817 0.01557864 -0.6880547 -0.6994314 0.1933302 
-4.140107 1.297732 0.0750729 0.7569454 -0.0218525 0.6531126 
-4.124619 1.18248 0.02800585 0.4728414 -0.5506697 0.6878837 
-4.134779 1.161357 0.003398217 0.128818 -0.8820121 -0.4532778 
-4.120928 1.178229 0.007151619 0.9763198 -0.1187706 -0.1808123 
-4.137409 1.319565 0.05855238 0.8175831 0.5432777 -0.1908069 
-4.146058 1.31574 0.04677173 0.1918596 0.8032865 -0.5638446 
-4.134367 1.19427 -0.00446339 0.1990036 0.06946196 -0.9775339 
-4.15064 1.173999 0.005532563 -0.6477518 -0.3127678 -0.6946898 
-4.156098 1.201092 0.00709803 -0.7679865 0.004675698 -0.640449 
-4.147781 1.306083 0.03296017 0.1420339 0.5434443 -0.827342 
-4.171806 1.297632 0.04201216 -0.7051976 0.1770914 -0.6865385 
-4.180139 1.305892 0.0544581 -0.9012898 0.2650129 -0.3427022 
-4.182664 1.285121 0.06030766 -0.9794337 -0.2004329 0.02315935 
-4.167354 1.288387 0.07901934 -0.2383452 -0.405012 0.8826987 
-4.135327 1.307149 0.05383077 0.9501604 0.2104724 -0.2299924 
-4.114377 1.217945 0.009444527 -0.2737489 -0.7875009 -0.5521812 
-4.096862 1.24109 0.008931156 0.7360997 -0.1717417 -0.6547229 
-4.096227 1.234664 0.01783355 0.8300846 -0.5159178 0.2116327 
-4.110469 1.303632 0.05383769 -0.03818611 0.945918 0.3221505 
-4.100843 1.296071 0.04412169 0.8281774 0.5601079 0.02003559 
-4.107074 1.298836 0.03954986 0.3208742 0.8182212 -0.477026 
-4.113353 1.237752 0.005597025 -0.1110578 -0.1845772 -0.9765232 
-4.124323 1.246448 0.01015863 -0.5649226 -0.05591441 -0.8232473 
-4.114103 1.249071 0.00443795 -0.1712217 0.3155855 -0.9333215 
-4.098014 1.282705 0.04740235 0.9430775 0.05677261 0.3276914 
-4.098981 1.288877 0.03623858 0.7241095 0.4753017 -0.4997536 
-4.112273 1.235215 0.03216389 -0.03256135 -0.5846985 0.8105969 
-4.110173 1.283263 0.05680516 0.3529103 -0.1261211 0.9271181 
-4.12689 1.234421 0.0227962 -0.8366069 -0.5006959 0.2222443 
-4.1203 1.291488 0.05362975 -0.6868738 -0.004356181 0.7267637 
-4.127591 1.241476 0.01606048 -0.777755 -0.3759523 -0.5037431 
-4.124127 1.293577 0.03925434 -0.8222175 0.5431103 -0.1702633 
-4.113949 1.297978 0.03782125 -0.1988199 0.8501365 -0.4875844 
-4.111183 1.291372 0.03005879 0.0610895 0.6416125 -0.7645924 
-4.130679 1.249692 0.01372043 -0.8470587 0.03864919 -0.5300924 
-4.113849 1.253291 0.006732773 -0.08650076 0.4698246 -0.8785115 
-4.106673 1.247852 0.004057974 0.2164121 0.1234775 -0.9684623 
-4.097355 1.252228 0.0100836 0.713197 0.3714179 -0.5944736 
-4.096178 1.24155 0.02231383 0.9015453 -0.2122262 0.3770625 
-4.126681 1.239393 0.02575891 -0.83276 -0.2083188 0.5129464 
3 0 1 2 
3 0 2 3 
3 4 5 6 
3 7 8 9 
3 7 9 10 
3 4 11 5 
3 12 13 5 
3 12 5 11 
3 14 0 3 
3 14 3 15 
3 16 17 18 
3 12 18 17 
3 19 14 15 
3 19 15 20 
3 16 21 17 
3 9 8 19 
3 22 23 24 
3 25 22 24 
3 25 24 26 
3 16 22 21 
3 16 23 22 
3 24 6 5 
3 24 5 13 
3 10 26 27 
3 10 27 7 
3 23 6 24 
3 9 19 20 
3 9 20 10 
3 11 18 12 
3 1 8 7 
3 1 7 2 
3 4 6 23 
3 4 23 16 
3 16 18 11 
3 16 11 4 
3 27 13 12 
3 27 12 28 
3 26 24 13 
3 26 13 27 
3 15 29 25 
3 15 25 20 
3 15 3 29 
3 3 17 21 
3 3 21 29 
3 29 21 22 
3 29 22 25 
3 28 12 17 
3 28 17 3 
3 7 27 28 
3 7 28 2 
3 2 28 3 
3 30 31 32 
3 33 34 35 
3 36 37 38 
3 39 40 41 
3 42 43 44 
3 42 44 45 
3 30 32 46 
3 47 48 49 
3 42 49 48 
3 30 46 50 
3 47 51 48 
3 30 50 52 
3 53 54 55 
3 56 53 55 
3 56 55 57 
3 47 53 51 
3 47 54 53 
3 55 54 44 
3 55 44 43 
3 37 52 56 
3 58 59 60 
3 31 61 62 
3 45 49 42 
3 30 52 37 
3 30 37 36 
3 44 54 47 
3 31 30 36 
3 31 36 61 
3 47 49 45 
3 47 45 44 
3 36 38 61 
3 62 43 42 
3 62 42 63 
3 57 55 43 
3 57 43 62 
3 38 57 62 
3 38 62 61 
3 37 56 57 
3 37 57 38 
3 50 64 56 
3 50 56 52 
3 50 46 64 
3 46 48 51 
3 46 51 64 
3 64 51 53 
3 64 53 56 
3 63 42 48 
3 63 48 46 
3 31 62 63 
3 31 63 32 
3 32 63 46 
3 65 66 67 
3 68 69 70 
3 65 71 66 
3 39 41 72 
3 73 74 69 
3 65 67 75 
3 76 73 69 
3 76 69 68 
3 65 75 77 
3 68 78 76 
3 65 77 79 
3 80 81 82 
3 83 80 82 
3 83 82 84 
3 68 80 78 
3 68 81 80 
3 82 70 69 
3 82 69 74 
3 71 84 85 
3 71 85 66 
3 81 70 82 
3 65 79 71 
3 86 58 60 
3 86 60 87 
3 68 70 81 
3 87 88 86 
3 85 74 73 
3 85 73 89 
3 84 82 74 
3 84 74 85 
3 77 90 83 
3 77 83 79 
3 77 75 90 
3 75 76 78 
3 75 78 90 
3 90 78 80 
3 90 80 83 
3 89 73 76 
3 89 76 75 
3 66 85 89 
3 66 89 67 
3 67 89 75 
3 39 72 91 
3 39 91 92 
3 93 94 95 
3 96 93 95 
3 96 95 97 
3 87 93 88 
3 87 94 93 
3 95 94 60 
3 95 60 59 
3 34 92 96 
3 40 98 99 
3 39 92 34 
3 39 34 33 
3 60 94 87 
3 40 39 33 
3 40 33 98 
3 33 35 98 
3 99 59 58 
3 99 58 100 
3 97 95 59 
3 97 59 99 
3 35 97 99 
3 35 99 98 
3 34 96 97 
3 34 97 35 
3 91 101 96 
3 91 96 92 
3 91 72 101 
3 72 86 88 
3 72 88 101 
3 101 88 93 
3 101 93 96 
3 100 58 86 
3 100 86 72 
3 40 99 100 
3 40 100 41 
3 41 100 72 
3 102 103 104 
3 105 106 107 
3 102 108 109 
3 110 111 106 
3 102 104 112 
3 113 110 106 
3 113 106 105 
3 102 112 114 
3 105 115 113 
3 102 114 116 
3 117 118 119 
3 120 117 119 
3 120 119 121 
3 105 117 115 
3 105 118 117 
3 119 107 106 
3 119 106 111 
3 108 116 120 
3 118 107 119 
3 103 122 123 
3 102 116 108 
3 105 107 118 
3 103 102 122 
3 102 109 122 
3 123 111 110 
3 123 110 124 
3 121 119 111 
3 121 111 123 
3 109 121 123 
3 109 123 122 
3 108 120 121 
3 108 121 109 
3 114 125 120 
3 114 120 116 
3 114 112 125 
3 112 113 115 
3 112 115 125 
3 125 115 117 
3 125 117 120 
3 124 110 113 
3 124 113 112 
3 103 123 124 
3 103 124 104 
3 104 124 112 
3 126 127 128 
3 129 130 131 
3 132 133 134 
3 132 134 135 
3 126 128 136 
3 137 138 139 
3 132 139 138 
3 126 136 140 
3 137 141 138 
3 126 140 142 
3 143 144 145 
3 146 143 145 
3 146 145 147 
3 137 143 141 
3 137 144 143 
3 145 144 134 
3 145 134 133 
3 130 142 146 
3 127 148 149 
3 135 139 132 
3 126 142 130 
3 126 130 129 
3 134 144 137 
3 127 126 129 
3 127 129 148 
3 137 139 135 
3 137 135 134 
3 129 131 148 
3 149 133 132 
3 149 132 150 
3 147 145 133 
3 147 133 149 
3 131 147 149 
3 131 149 148 
3 130 146 147 
3 130 147 131 
3 140 151 146 
3 140 146 142 
3 140 136 151 
3 136 138 141 
3 136 141 151 
3 151 141 143 
3 151 143 146 
3 150 132 138 
3 150 138 136 
3 127 149 150 
3 127 150 128 
3 128 150 136 
3 152 153 154 
3 155 156 157 
3 158 159 160 
3 161 162 156 
3 152 154 163 
3 164 161 156 
3 164 156 155 
3 152 163 165 
3 155 166 164 
3 152 165 167 
3 168 169 170 
3 171 168 170 
3 171 170 172 
3 155 168 166 
3 155 169 168 
3 170 157 156 
3 170 156 162 
3 159 167 171 
3 169 157 170 
3 153 173 174 
3 152 167 159 
3 152 159 158 
3 155 157 169 
3 153 152 158 
3 153 158 173 
3 158 160 173 
3 174 162 161 
3 174 161 175 
3 172 170 162 
3 172 162 174 
3 160 172 174 
3 160 174 173 
3 159 171 172 
3 159 172 160 
3 165 176 171 
3 165 171 167 
3 165 163 176 
3 163 164 166 
3 163 166 176 
3 176 166 168 
3 176 168 171 
3 175 161 164 
3 175 164 163 
3 153 174 175 
3 153 175 154 
3 154 175 163 
3 177 178 179 
3 180 181 182 
3 183 184 185 
3 186 187 181 
3 177 179 188 
3 189 186 181 
3 189 181 180 
3 177 188 190 
3 180 191 189 
3 177 190 192 
3 193 194 195 
3 196 193 195 
3 196 195 197 
3 180 193 191 
3 180 194 193 
3 195 182 181 
3 195 181 187 
3 184 192 196 
3 194 182 195 
3 178 198 199 
3 177 192 184 
3 177 184 183 
3 180 182 194 
3 178 177 183 
3 178 183 198 
3 183 185 198 
3 199 187 186 
3 199 186 200 
3 197 195 187 
3 197 187 199 
3 185 197 199 
3 185 199 198 
3 184 196 197 
3 184 197 185 
3 190 201 196 
3 190 196 192 
3 190 188 201 
3 188 189 191 
3 188 191 201 
3 201 191 193 
3 201 193 196 
3 200 186 189 
3 200 189 188 
3 178 199 200 
3 178 200 179 
3 179 200 188 
3 202 203 204 
3 205 206 207 
3 202 208 209 
3 210 211 206 
3 202 204 212 
3 213 210 206 
3 213 206 205 
3 202 212 214 
3 205 215 213 
3 202 214 208 
3 216 217 218 
3 219 216 218 
3 219 218 220 
3 205 216 215 
3 205 217 216 
3 218 207 206 
3 218 206 211 
3 209 208 219 
3 217 207 218 
3 203 221 222 
3 221 202 209 
3 221 209 223 
3 205 207 217 
3 203 202 221 
3 222 211 210 
3 222 210 224 
3 220 218 211 
3 220 211 222 
3 223 220 222 
3 223 222 221 
3 209 219 220 
3 209 220 223 
3 214 225 219 
3 214 219 208 
3 214 212 225 
3 212 213 215 
3 212 215 225 
3 225 215 216 
3 225 216 219 
3 224 210 213 
3 224 213 212 
3 203 222 224 
3 203 224 204 
3 204 224 212 
3 0 19 8 
3 8 1 0 
3 0 14 19 
3 83 84 71 
3 83 71 79 
3 25 26 10 
3 25 10 20 
3 226 227 228 
3 229 230 231 
3 232 233 234 
3 229 231 235 
3 236 232 234 
3 236 234 237 
3 237 238 236 
3 229 235 239 
3 229 239 240 
3 241 242 243 
3 244 241 243 
3 244 243 245 
3 237 241 238 
3 237 242 241 
3 243 242 234 
3 243 234 233 
3 227 240 244 
3 230 246 247 
3 229 240 227 
3 229 227 226 
3 234 242 237 
3 230 229 226 
3 230 226 246 
3 226 228 246 
3 247 233 232 
3 247 232 248 
3 245 243 233 
3 245 233 247 
3 228 245 247 
3 228 247 246 
3 227 244 245 
3 227 245 228 
3 239 249 244 
3 239 244 240 
3 239 235 249 
3 235 236 238 
3 235 238 249 
3 249 238 241 
3 249 241 244 
3 248 232 236 
3 248 236 235 
3 230 247 248 
3 230 248 231 
3 231 248 235 
3 250 251 252 
3 253 254 255 
3 256 257 258 
3 253 255 259 
3 260 256 258 
3 260 258 261 
3 261 262 260 
3 253 259 263 
3 253 263 264 
3 265 266 267 
3 268 265 267 
3 268 267 269 
3 261 265 262 
3 261 266 265 
3 267 266 258 
3 267 258 257 
3 251 264 268 
3 254 270 271 
3 253 264 251 
3 253 251 250 
3 258 266 261 
3 254 253 250 
3 254 250 270 
3 250 252 270 
3 271 257 256 
3 271 256 272 
3 269 267 257 
3 269 257 271 
3 252 269 271 
3 252 271 270 
3 251 268 269 
3 251 269 252 
3 263 273 268 
3 263 268 264 
3 263 259 273 
3 259 260 262 
3 259 262 273 
3 273 262 265 
3 273 265 268 
3 272 256 260 
3 272 260 259 
3 254 271 272 
3 254 272 255 
3 255 272 259 
3 274 275 276 
3 277 278 279 
3 280 281 282 
3 283 284 278 
3 274 276 285 
3 286 283 278 
3 286 278 277 
3 274 285 287 
3 277 288 286 
3 274 287 289 
3 290 291 292 
3 293 290 292 
3 293 292 294 
3 277 290 288 
3 277 291 290 
3 292 279 278 
3 292 278 284 
3 281 289 293 
3 291 279 292 
3 275 295 296 
3 274 289 281 
3 274 281 280 
3 277 279 291 
3 275 274 280 
3 275 280 295 
3 280 282 295 
3 296 284 283 
3 296 283 297 
3 294 292 284 
3 294 284 296 
3 282 294 296 
3 282 296 295 
3 281 293 294 
3 281 294 282 
3 287 298 293 
3 287 293 289 
3 287 285 298 
3 285 286 288 
3 285 288 298 
3 298 288 290 
3 298 290 293 
3 297 283 286 
3 297 286 285 
3 275 296 297 
3 275 297 276 
3 276 297 285 
