ply
format ascii 1.0
comment VCGLIB generated
element vertex 210
property float x
property float y
property float z
property float nx
property float ny
property float nz
element face 416
property list uchar int vertex_indices
end_header
-2.16059 -3.231059e-08 0.3094254 0.07373229 -0.9181259 0.3893692 
-2.16059 6.372192e-08 0 9.461932e-08 -1 -4.736952e-15 
-1.821018 6.410577e-08 0 0.4010717 -0.9160467 -2.924977e-15 
-1.821018 -3.155452e-08 0.3047847 0.7255868 -0.6088594 0.3206464 
-2.5 -3.15545e-08 0.3047846 -0.5994455 -0.7831356 0.16542 
-2.5 -3.15545e-08 0 -0.7780505 -0.6282018 0 
0 2.925144 0.3621185 0 0.1985694 0.9800869 
-0.8476113 2.274186 0.3621186 -0.231082 0.2947011 0.9272283 
-0.729296 2.136121 0.3621186 0.1647682 -0.2078816 0.9641767 
0 2.681126 0.3621184 0 -0.2889808 0.9573349 
-2.359222 0.364314 0.3621184 -0.2351436 0.06615452 0.9697067 
-2.179646 0.3318567 0.3621185 0.3349337 -0.09412475 0.9375287 
-2.046674 0.7188631 0.3621185 0.236344 -0.1165962 0.9646485 
-2.212836 0.7853644 0.3621185 -0.3444608 0.1428267 0.9278725 
-2.41913 0.3751506 0.3047847 -0.856977 0.2511224 0.4500312 
-2.268095 0.8074394 0.3047846 -0.8284545 0.3992501 0.3927628 
-1.544183 1.704955 0.3621185 -0.3433417 0.3525212 0.8705431 
-1.413591 1.577696 0.3621185 0.1220664 -0.1254989 0.9845557 
-2.001084 0.2995625 0.3621185 -0.1668458 0.04676959 0.9848731 
-1.821698 0.2671635 0.3621186 0.4721041 -0.1319257 0.8716154 
-1.715938 0.5866212 0.3621186 0.3310395 -0.1694979 0.928269 
-1.881964 0.653066 0.3621186 -0.2434659 0.1015496 0.9645787 
-1.531422 0.8895514 0.3621186 0.2935127 -0.2261702 0.9288151 
-1.480753 0.8562012 0.3047847 0.7398352 -0.5457252 0.3934819 
-1.112465 1.284256 0.3047849 0.6134645 -0.6499759 0.448545 
-1.155331 1.326028 0.3621186 0.1715429 -0.1763609 0.9692625 
0 2.216439 0.3621186 -7.225027e-10 -0.4215938 0.9067848 
-0.4957029 1.863535 0.3621185 0.230148 -0.2953028 0.9272692 
-0.4569997 1.818372 0.3047847 0.5500014 -0.7381625 0.3906595 
0 2.143721 0.3047847 -1.914173e-08 -0.8871256 0.4615281 
-1.987694 1.189888 0.3621184 -0.3117353 0.2017118 0.9285114 
-1.834946 1.089342 0.3621184 0.2087775 -0.1579706 0.9651204 
0 3 0.3047846 0 0.7964761 0.60467 
-0.8862979 2.31933 0.3047847 -0.570929 0.7219493 0.390934 
-1.587025 1.746704 0.3047847 -0.6489689 0.6934053 0.3130952 
-1.684088 0.9900423 0.3621186 -0.2187233 0.1459125 0.9648159 
-1.285923 1.453287 0.3621186 -0.2440357 0.2505995 0.9368279 
-1.759514 1.03969 0.3094255 0.01170197 0.01483427 0.9998215 
-1.349757 1.515492 0.3094254 0.1344653 -0.1383071 0.9812188 
-1.761746 0.2563339 0.3047848 0.911349 -0.2644649 0.3154382 
-1.660628 0.5645312 0.3047847 0.8307825 -0.3936994 0.3934479 
-0.6140183 2.001601 0.3621185 -0.1618763 0.2103131 0.9641393 
0 2.460458 0.3621185 0 0.1420278 0.9898627 
0 3 0 0 1 0 
-0.8862979 2.31933 0 -0.624946 0.780668 0 
-2.038305 1.223201 0.3047846 -0.7353805 0.5506333 0.3949918 
-2.038305 1.223201 0 -0.8399277 0.5426983 0 
-2.268095 0.8074394 0 -0.9240211 0.3823416 0 
-2.09035 0.3157048 0.3094255 -0.1853946 0.05199055 0.9812879 
-1.96431 0.6859609 0.3094254 0.008382621 0.01769176 0.9998084 
0 2.570792 0.3094254 0 0.1572123 0.9875649 
-0.6716571 2.068861 0.3094256 -0.003251097 -0.002720528 0.999991 
-1.587025 1.746704 0 -0.7182938 0.6957399 0 
-1.882961 -4.089539e-08 0.3621186 0.189715 -0.6088229 0.7702876 
-2.438218 -4.089537e-08 0.3621185 -0.4655451 -0.2459284 0.8501688 
-2.068451 -4.089537e-08 0.3621185 -0.3276732 -0.2597702 0.9083775 
-2.252728 -4.089537e-08 0.3621185 0.1374735 -0.587414 0.7975248 
-1.112465 1.284257 0 0.7184147 -0.6956152 -1.426021e-14 
-1.480753 0.8562014 0 0.8223949 -0.5689171 -4.750098e-15 
-1.660628 0.5645313 0 0.9228445 -0.3851729 0 
-1.761746 0.256334 0 0.967117 -0.254332 0 
-0.4569997 1.818372 0 0.6147411 -0.788729 9.47836e-15 
-2.41913 0.3751506 0 -0.9680247 0.250855 0 
0 2.143721 0 9.145832e-09 -1 0 
2.16059 -3.231059e-08 0.3094254 -0.07373229 -0.9181259 0.3893692 
1.821018 -3.155452e-08 0.3047847 -0.7255868 -0.6088594 0.3206464 
1.821018 6.410577e-08 0 -0.4010717 -0.9160467 -2.924977e-15 
2.16059 6.372192e-08 0 -9.461932e-08 -1 -4.736952e-15 
2.5 -3.15545e-08 0.3047846 0.5994455 -0.7831356 0.16542 
2.5 -3.15545e-08 0 0.7780505 -0.6282018 0 
0.729296 2.136121 0.3621186 -0.1647682 -0.2078816 0.9641767 
0.8476113 2.274186 0.3621186 0.231082 0.2947011 0.9272283 
2.359222 0.364314 0.3621184 0.2351436 0.06615452 0.9697067 
2.212836 0.7853644 0.3621185 0.3444608 0.1428267 0.9278725 
2.046674 0.7188631 0.3621185 -0.236344 -0.1165962 0.9646485 
2.179646 0.3318567 0.3621185 -0.3349337 -0.09412476 0.9375287 
2.41913 0.3751506 0.3047847 0.856977 0.2511223 0.4500312 
2.268095 0.8074394 0.3047846 0.8284545 0.3992501 0.3927628 
1.413591 1.577696 0.3621185 -0.1220664 -0.1254989 0.9845557 
1.544183 1.704955 0.3621185 0.3433417 0.3525212 0.8705431 
2.001084 0.2995625 0.3621185 0.1668458 0.04676959 0.9848731 
1.881964 0.653066 0.3621186 0.2434659 0.1015496 0.9645787 
1.715938 0.5866212 0.3621186 -0.3310395 -0.1694979 0.928269 
1.821698 0.2671635 0.3621186 -0.4721042 -0.1319257 0.8716154 
1.531422 0.8895514 0.3621186 -0.2935127 -0.2261702 0.9288151 
1.155331 1.326028 0.3621186 -0.1715429 -0.1763609 0.9692625 
1.112465 1.284256 0.3047849 -0.6134645 -0.6499759 0.448545 
1.480753 0.8562012 0.3047847 -0.7398352 -0.5457252 0.3934819 
0.4569997 1.818372 0.3047847 -0.5500014 -0.7381625 0.3906595 
0.4957029 1.863535 0.3621185 -0.230148 -0.2953028 0.9272692 
1.987694 1.189888 0.3621184 0.3117353 0.2017118 0.9285114 
1.834946 1.089342 0.3621184 -0.2087775 -0.1579706 0.9651204 
0.8862979 2.31933 0.3047847 0.570929 0.7219493 0.390934 
1.587025 1.746704 0.3047847 0.6489689 0.6934053 0.3130952 
1.684088 0.9900423 0.3621186 0.2187233 0.1459125 0.9648159 
1.285923 1.453287 0.3621186 0.2440357 0.2505995 0.9368279 
1.759514 1.03969 0.3094255 -0.01170196 0.01483427 0.9998215 
1.349757 1.515492 0.3094254 -0.1344653 -0.1383071 0.9812188 
1.660628 0.5645312 0.3047847 -0.8307825 -0.3936994 0.3934479 
1.761746 0.2563339 0.3047848 -0.911349 -0.2644649 0.3154382 
0.6140183 2.001601 0.3621185 0.1618763 0.2103131 0.9641393 
0.8862979 2.31933 0 0.624946 0.780668 0 
2.038305 1.223201 0.3047846 0.7353805 0.5506333 0.3949918 
2.268095 0.8074394 0 0.9240211 0.3823416 0 
2.038305 1.223201 0 0.8399277 0.5426983 0 
1.96431 0.6859609 0.3094254 -0.008382621 0.01769176 0.9998084 
2.09035 0.3157048 0.3094255 0.1853946 0.05199055 0.9812879 
0.6716571 2.068861 0.3094256 0.003251097 -0.002720528 0.999991 
1.587025 1.746704 0 0.7182938 0.6957399 0 
1.882961 -4.089539e-08 0.3621186 -0.189715 -0.6088229 0.7702876 
2.438218 -4.089537e-08 0.3621185 0.4655451 -0.2459284 0.8501688 
2.068451 -4.089537e-08 0.3621185 0.3276732 -0.2597702 0.9083775 
2.252728 -4.089537e-08 0.3621185 -0.1374735 -0.587414 0.7975248 
1.112465 1.284257 0 -0.7184147 -0.6956152 -9.506807e-15 
1.480753 0.8562014 0 -0.8223949 -0.5689171 4.750098e-15 
1.660628 0.5645313 0 -0.9228445 -0.3851729 1.191575e-15 
1.761746 0.256334 0 -0.967117 -0.2543321 1.185299e-15 
0.4569997 1.818372 0 -0.6147411 -0.788729 9.47836e-15 
2.41913 0.3751506 0 0.9680247 0.250855 0 
-2.16059 -3.231059e-08 -0.3094254 0.07373229 -0.9181259 -0.3893692 
-1.821018 -3.155452e-08 -0.3047847 0.7255868 -0.6088594 -0.3206464 
-2.5 -3.15545e-08 -0.3047846 -0.5994455 -0.7831356 -0.16542 
0 2.925144 -0.3621185 0 0.1985694 -0.9800869 
0 2.681126 -0.3621184 0 -0.2889808 -0.9573349 
-0.729296 2.136121 -0.3621186 0.1647682 -0.2078816 -0.9641767 
-0.8476113 2.274186 -0.3621186 -0.231082 0.2947011 -0.9272283 
-2.359222 0.364314 -0.3621184 -0.2351436 0.06615452 -0.9697067 
-2.212836 0.7853644 -0.3621185 -0.3444608 0.1428267 -0.9278725 
-2.046674 0.7188631 -0.3621185 0.236344 -0.1165962 -0.9646485 
-2.179646 0.3318567 -0.3621185 0.3349337 -0.09412476 -0.9375287 
-2.41913 0.3751506 -0.3047847 -0.856977 0.2511223 -0.4500312 
-2.268095 0.8074394 -0.3047846 -0.8284545 0.3992501 -0.3927628 
-1.413591 1.577696 -0.3621185 0.1220664 -0.1254989 -0.9845557 
-1.544183 1.704955 -0.3621185 -0.3433417 0.3525212 -0.8705431 
-2.001084 0.2995625 -0.3621185 -0.1668458 0.04676959 -0.9848731 
-1.881964 0.653066 -0.3621186 -0.2434659 0.1015496 -0.9645787 
-1.715938 0.5866212 -0.3621186 0.3310395 -0.1694979 -0.928269 
-1.821698 0.2671635 -0.3621186 0.4721042 -0.1319257 -0.8716154 
-1.531422 0.8895514 -0.3621186 0.2935127 -0.2261702 -0.9288151 
-1.155331 1.326028 -0.3621186 0.1715429 -0.1763609 -0.9692625 
-1.112465 1.284256 -0.3047849 0.6134645 -0.6499759 -0.448545 
-1.480753 0.8562012 -0.3047847 0.7398352 -0.5457252 -0.3934819 
0 2.216439 -0.3621186 -7.225027e-10 -0.4215938 -0.9067848 
0 2.143721 -0.3047847 -1.914173e-08 -0.8871256 -0.4615281 
-0.4569997 1.818372 -0.3047847 0.5500014 -0.7381625 -0.3906595 
-0.4957029 1.863535 -0.3621185 0.230148 -0.2953028 -0.9272692 
-1.987694 1.189888 -0.3621184 -0.3117353 0.2017118 -0.9285114 
-1.834946 1.089342 -0.3621184 0.2087775 -0.1579706 -0.9651204 
0 3 -0.3047846 0 0.7964761 -0.60467 
-0.8862979 2.31933 -0.3047847 -0.570929 0.7219493 -0.390934 
-1.587025 1.746704 -0.3047847 -0.6489689 0.6934053 -0.3130952 
-1.684088 0.9900423 -0.3621186 -0.2187233 0.1459125 -0.9648159 
-1.285923 1.453287 -0.3621186 -0.2440357 0.2505995 -0.9368279 
-1.759514 1.03969 -0.3094255 0.01170196 0.01483427 -0.9998215 
-1.349757 1.515492 -0.3094254 0.1344653 -0.1383071 -0.9812188 
-1.660628 0.5645312 -0.3047847 0.8307825 -0.3936994 -0.3934479 
-1.761746 0.2563339 -0.3047848 0.911349 -0.2644649 -0.3154382 
-0.6140183 2.001601 -0.3621185 -0.1618763 0.2103131 -0.9641393 
0 2.460458 -0.3621185 0 0.1420278 -0.9898627 
-2.038305 1.223201 -0.3047846 -0.7353805 0.5506333 -0.3949918 
-1.96431 0.6859609 -0.3094254 0.008382621 0.01769176 -0.9998084 
-2.09035 0.3157048 -0.3094255 -0.1853946 0.05199055 -0.9812879 
-0.6716571 2.068861 -0.3094256 -0.003251097 -0.002720528 -0.999991 
0 2.570792 -0.3094254 0 0.1572123 -0.9875649 
-1.882961 -4.089539e-08 -0.3621186 0.189715 -0.6088229 -0.7702876 
-2.438218 -4.089537e-08 -0.3621185 -0.4655451 -0.2459284 -0.8501688 
-2.068451 -4.089537e-08 -0.3621185 -0.3276732 -0.2597702 -0.9083775 
-2.252728 -4.089537e-08 -0.3621185 0.1374735 -0.587414 -0.7975248 
2.16059 -3.231059e-08 -0.3094254 -0.07373229 -0.9181259 -0.3893692 
1.821018 -3.155452e-08 -0.3047847 -0.7255868 -0.6088594 -0.3206464 
2.5 -3.15545e-08 -0.3047846 0.5994455 -0.7831356 -0.16542 
0.8476113 2.274186 -0.3621186 0.231082 0.2947011 -0.9272283 
0.729296 2.136121 -0.3621186 -0.1647682 -0.2078816 -0.9641767 
2.359222 0.364314 -0.3621184 0.2351436 0.06615452 -0.9697067 
2.179646 0.3318567 -0.3621185 -0.3349337 -0.09412475 -0.9375287 
2.046674 0.7188631 -0.3621185 -0.236344 -0.1165962 -0.9646485 
2.212836 0.7853644 -0.3621185 0.3444608 0.1428267 -0.9278725 
2.41913 0.3751506 -0.3047847 0.856977 0.2511224 -0.4500312 
2.268095 0.8074394 -0.3047846 0.8284545 0.3992501 -0.3927628 
1.544183 1.704955 -0.3621185 0.3433417 0.3525212 -0.8705431 
1.413591 1.577696 -0.3621185 -0.1220664 -0.1254989 -0.9845557 
2.001084 0.2995625 -0.3621185 0.1668458 0.04676959 -0.9848731 
1.821698 0.2671635 -0.3621186 -0.4721041 -0.1319257 -0.8716154 
1.715938 0.5866212 -0.3621186 -0.3310395 -0.1694979 -0.928269 
1.881964 0.653066 -0.3621186 0.2434659 0.1015496 -0.9645787 
1.531422 0.8895514 -0.3621186 -0.2935127 -0.2261702 -0.9288151 
1.480753 0.8562012 -0.3047847 -0.7398352 -0.5457252 -0.3934819 
1.112465 1.284256 -0.3047849 -0.6134645 -0.6499759 -0.448545 
1.155331 1.326028 -0.3621186 -0.1715429 -0.1763609 -0.9692625 
0.4957029 1.863535 -0.3621185 -0.230148 -0.2953028 -0.9272692 
0.4569997 1.818372 -0.3047847 -0.5500014 -0.7381625 -0.3906595 
1.987694 1.189888 -0.3621184 0.3117353 0.2017118 -0.9285114 
1.834946 1.089342 -0.3621184 -0.2087775 -0.1579706 -0.9651204 
0.8862979 2.31933 -0.3047847 0.570929 0.7219493 -0.390934 
1.587025 1.746704 -0.3047847 0.6489689 0.6934053 -0.3130952 
1.684088 0.9900423 -0.3621186 0.2187233 0.1459125 -0.9648159 
1.285923 1.453287 -0.3621186 0.2440357 0.2505995 -0.9368279 
1.759514 1.03969 -0.3094255 -0.01170197 0.01483427 -0.9998215 
1.349757 1.515492 -0.3094254 -0.1344653 -0.1383071 -0.9812188 
1.761746 0.2563339 -0.3047848 -0.911349 -0.2644649 -0.3154382 
1.660628 0.5645312 -0.3047847 -0.8307825 -0.3936994 -0.3934479 
0.6140183 2.001601 -0.3621185 0.1618763 0.2103131 -0.9641393 
2.038305 1.223201 -0.3047846 0.7353805 0.5506333 -0.3949918 
2.09035 0.3157048 -0.3094255 0.1853946 0.05199055 -0.9812879 
1.96431 0.6859609 -0.3094254 -0.008382621 0.01769176 -0.9998084 
0.6716571 2.068861 -0.3094256 0.003251097 -0.002720528 -0.999991 
1.882961 -4.089539e-08 -0.3621186 -0.189715 -0.6088229 -0.7702876 
2.438218 -4.089537e-08 -0.3621185 0.4655451 -0.2459284 -0.8501688 
2.068451 -4.089537e-08 -0.3621185 0.3276732 -0.2597702 -0.9083775 
2.252728 -4.089537e-08 -0.3621185 -0.1374735 -0.587414 -0.7975248 
3 0 1 2 
3 0 2 3 
3 4 5 1 
3 4 1 0 
3 6 7 8 
3 6 8 9 
3 10 11 12 
3 10 12 13 
3 14 10 13 
3 14 13 15 
3 7 16 17 
3 7 17 8 
3 18 19 20 
3 18 20 21 
3 22 23 24 
3 22 24 25 
3 26 27 28 
3 26 28 29 
3 27 25 24 
3 27 24 28 
3 30 31 17 
3 30 17 16 
3 32 33 7 
3 32 7 6 
3 33 34 16 
3 33 16 7 
3 35 22 25 
3 35 25 36 
3 37 35 36 
3 37 36 38 
3 19 39 40 
3 19 40 20 
3 41 36 25 
3 41 25 27 
3 42 41 27 
3 42 27 26 
3 33 32 43 
3 33 43 44 
3 45 30 16 
3 45 16 34 
3 15 45 46 
3 15 46 47 
3 11 48 49 
3 11 49 12 
3 31 37 38 
3 31 38 17 
3 41 42 50 
3 41 50 51 
3 51 50 9 
3 51 9 8 
3 48 18 21 
3 48 21 49 
3 36 41 51 
3 36 51 38 
3 38 51 8 
3 38 8 17 
3 20 40 23 
3 20 23 22 
3 15 13 30 
3 15 30 45 
3 45 34 52 
3 45 52 46 
3 49 21 35 
3 49 35 37 
3 12 49 37 
3 12 37 31 
3 13 12 31 
3 13 31 30 
3 21 20 22 
3 21 22 35 
3 19 53 3 
3 19 3 39 
3 14 4 54 
3 14 54 10 
3 34 33 44 
3 34 44 52 
3 55 18 48 
3 55 48 0 
3 0 48 11 
3 0 11 56 
3 10 54 56 
3 10 56 11 
3 18 55 53 
3 18 53 19 
3 57 24 23 
3 57 23 58 
3 58 23 40 
3 58 40 59 
3 60 39 3 
3 60 3 2 
3 61 28 24 
3 61 24 57 
3 59 40 39 
3 59 39 60 
3 4 14 62 
3 4 62 5 
3 14 15 47 
3 14 47 62 
3 4 0 56 
3 4 56 54 
3 53 55 0 
3 53 0 3 
3 63 29 28 
3 63 28 61 
3 64 65 66 
3 64 66 67 
3 68 64 67 
3 68 67 69 
3 6 9 70 
3 6 70 71 
3 72 73 74 
3 72 74 75 
3 76 77 73 
3 76 73 72 
3 71 70 78 
3 71 78 79 
3 80 81 82 
3 80 82 83 
3 84 85 86 
3 84 86 87 
3 26 29 88 
3 26 88 89 
3 89 88 86 
3 89 86 85 
3 90 79 78 
3 90 78 91 
3 32 6 71 
3 32 71 92 
3 92 71 79 
3 92 79 93 
3 94 95 85 
3 94 85 84 
3 96 97 95 
3 96 95 94 
3 83 82 98 
3 83 98 99 
3 100 89 85 
3 100 85 95 
3 42 26 89 
3 42 89 100 
3 92 101 43 
3 92 43 32 
3 102 93 79 
3 102 79 90 
3 77 103 104 
3 77 104 102 
3 75 74 105 
3 75 105 106 
3 91 78 97 
3 91 97 96 
3 100 107 50 
3 100 50 42 
3 107 70 9 
3 107 9 50 
3 106 105 81 
3 106 81 80 
3 95 97 107 
3 95 107 100 
3 97 78 70 
3 97 70 107 
3 82 84 87 
3 82 87 98 
3 77 102 90 
3 77 90 73 
3 102 104 108 
3 102 108 93 
3 105 96 94 
3 105 94 81 
3 74 91 96 
3 74 96 105 
3 73 90 91 
3 73 91 74 
3 81 94 84 
3 81 84 82 
3 83 99 65 
3 83 65 109 
3 76 72 110 
3 76 110 68 
3 93 108 101 
3 93 101 92 
3 111 64 106 
3 111 106 80 
3 64 112 75 
3 64 75 106 
3 72 75 112 
3 72 112 110 
3 80 83 109 
3 80 109 111 
3 113 114 87 
3 113 87 86 
3 114 115 98 
3 114 98 87 
3 116 66 65 
3 116 65 99 
3 117 113 86 
3 117 86 88 
3 115 116 99 
3 115 99 98 
3 68 69 118 
3 68 118 76 
3 76 118 103 
3 76 103 77 
3 68 110 112 
3 68 112 64 
3 109 65 64 
3 109 64 111 
3 63 117 88 
3 63 88 29 
3 119 120 2 
3 119 2 1 
3 121 119 1 
3 121 1 5 
3 122 123 124 
3 122 124 125 
3 126 127 128 
3 126 128 129 
3 130 131 127 
3 130 127 126 
3 125 124 132 
3 125 132 133 
3 134 135 136 
3 134 136 137 
3 138 139 140 
3 138 140 141 
3 142 143 144 
3 142 144 145 
3 145 144 140 
3 145 140 139 
3 146 133 132 
3 146 132 147 
3 148 122 125 
3 148 125 149 
3 149 125 133 
3 149 133 150 
3 151 152 139 
3 151 139 138 
3 153 154 152 
3 153 152 151 
3 137 136 155 
3 137 155 156 
3 157 145 139 
3 157 139 152 
3 158 142 145 
3 158 145 157 
3 149 44 43 
3 149 43 148 
3 159 150 133 
3 159 133 146 
3 131 47 46 
3 131 46 159 
3 129 128 160 
3 129 160 161 
3 147 132 154 
3 147 154 153 
3 157 162 163 
3 157 163 158 
3 162 124 123 
3 162 123 163 
3 161 160 135 
3 161 135 134 
3 152 154 162 
3 152 162 157 
3 154 132 124 
3 154 124 162 
3 136 138 141 
3 136 141 155 
3 131 159 146 
3 131 146 127 
3 159 46 52 
3 159 52 150 
3 160 153 151 
3 160 151 135 
3 128 147 153 
3 128 153 160 
3 127 146 147 
3 127 147 128 
3 135 151 138 
3 135 138 136 
3 137 156 120 
3 137 120 164 
3 130 126 165 
3 130 165 121 
3 150 52 44 
3 150 44 149 
3 166 119 161 
3 166 161 134 
3 119 167 129 
3 119 129 161 
3 126 129 167 
3 126 167 165 
3 134 137 164 
3 134 164 166 
3 57 58 141 
3 57 141 140 
3 58 59 155 
3 58 155 141 
3 60 2 120 
3 60 120 156 
3 61 57 140 
3 61 140 144 
3 59 60 156 
3 59 156 155 
3 121 5 62 
3 121 62 130 
3 130 62 47 
3 130 47 131 
3 121 165 167 
3 121 167 119 
3 164 120 119 
3 164 119 166 
3 63 61 144 
3 63 144 143 
3 168 67 66 
3 168 66 169 
3 170 69 67 
3 170 67 168 
3 122 171 172 
3 122 172 123 
3 173 174 175 
3 173 175 176 
3 177 173 176 
3 177 176 178 
3 171 179 180 
3 171 180 172 
3 181 182 183 
3 181 183 184 
3 185 186 187 
3 185 187 188 
3 142 189 190 
3 142 190 143 
3 189 188 187 
3 189 187 190 
3 191 192 180 
3 191 180 179 
3 148 193 171 
3 148 171 122 
3 193 194 179 
3 193 179 171 
3 195 185 188 
3 195 188 196 
3 197 195 196 
3 197 196 198 
3 182 199 200 
3 182 200 183 
3 201 196 188 
3 201 188 189 
3 158 201 189 
3 158 189 142 
3 193 148 43 
3 193 43 101 
3 202 191 179 
3 202 179 194 
3 178 202 104 
3 178 104 103 
3 174 203 204 
3 174 204 175 
3 192 197 198 
3 192 198 180 
3 201 158 163 
3 201 163 205 
3 205 163 123 
3 205 123 172 
3 203 181 184 
3 203 184 204 
3 196 201 205 
3 196 205 198 
3 198 205 172 
3 198 172 180 
3 183 200 186 
3 183 186 185 
3 178 176 191 
3 178 191 202 
3 202 194 108 
3 202 108 104 
3 204 184 195 
3 204 195 197 
3 175 204 197 
3 175 197 192 
3 176 175 192 
3 176 192 191 
3 184 183 185 
3 184 185 195 
3 182 206 169 
3 182 169 199 
3 177 170 207 
3 177 207 173 
3 194 193 101 
3 194 101 108 
3 208 181 203 
3 208 203 168 
3 168 203 174 
3 168 174 209 
3 173 207 209 
3 173 209 174 
3 181 208 206 
3 181 206 182 
3 113 187 186 
3 113 186 114 
3 114 186 200 
3 114 200 115 
3 116 199 169 
3 116 169 66 
3 117 190 187 
3 117 187 113 
3 115 200 199 
3 115 199 116 
3 170 177 118 
3 170 118 69 
3 177 178 103 
3 177 103 118 
3 170 168 209 
3 170 209 207 
3 206 208 168 
3 206 168 169 
3 63 143 190 
3 63 190 117 
