ply
format ascii 1.0
comment VCGLIB generated
element vertex 188
property float x
property float y
property float z
property float nx
property float ny
property float nz
element face 238
property list uchar int vertex_indices
end_header
-0.4894521 0.126337 0.223373 -0.2816316 -1.3909e-07 0.9595226 
-0.4374717 0.126337 0.223373 0.2816318 -1.2871e-07 0.9595225 
-0.4374717 2.126336 0.2233733 0.2816313 -1.342118e-07 0.9595227 
-0.4894521 2.126337 0.2233733 -0.2816315 -1.4298e-07 0.9595227 
-0.4980761 2.128837 -0.1880071 -0.8259836 -0.3017668 -0.4761176 
-0.4980761 2.128836 0.2209065 -0.7421427 -0.5637231 0.3625472 
-0.4980761 2.143661 0.2209065 -0.8709198 -0.1323487 0.473268 
-0.4980761 2.143661 -0.1880071 -0.8535985 -0.2215356 -0.4714782 
0.4894521 2.126337 0.2233733 0.2816316 -1.3909e-07 0.9595226 
0.4374717 2.126336 0.2233733 -0.2816308 -1.286581e-07 0.9595228 
0.4374717 0.126337 0.223373 -0.2816314 -1.341858e-07 0.9595227 
0.4894521 0.126337 0.223373 0.2816318 -1.4298e-07 0.9595225 
-0.4980761 -0.001807334 0.2346976 -0.9492927 0 0.3143938 
-0.4980761 0.1258267 0.2346976 -0.7408011 0.3595905 0.5673698 
-0.4980761 0.1258268 -0.191213 -0.8269328 0.4729367 -0.3041594 
-0.4980761 -0.001807259 -0.191213 -0.7775771 0 -0.6287876 
0.48 2.126337 -0.182533 0.8776283 6.963355e-08 -0.4793418 
0.48 2.126337 0.185 1 0 0 
0.48 0.126337 0.1849997 1 0 0 
0.48 0.126337 -0.1825333 0.877628 7.141106e-08 -0.4793423 
0.4942361 0.1283268 -0.191213 0.2784582 0.9270323 -0.2511419 
-0.4942361 0.1283268 -0.191213 -0.2134984 0.8619247 -0.4598959 
-0.4942361 0.1283267 0.2346976 -0.2784581 0.9270322 0.2511421 
0.4942361 0.1283267 0.2346976 0.2134984 0.8619246 0.4598961 
-0.4336317 0.126337 0.2209064 0.8776283 -6.608573e-08 0.4793418 
-0.4336317 0.126337 0.1874665 0.8776287 6.431522e-08 -0.4793411 
-0.4336317 2.126336 0.1874668 0.8776283 6.608573e-08 -0.4793418 
-0.4336317 2.126336 0.2209066 0.877628 -6.785622e-08 0.4793424 
0.4942361 -0.001807334 0.2371643 0.1868613 0 0.9823864 
0.4942361 0.1258267 0.2371643 0.3315837 0.2970959 0.8954253 
-0.4942361 0.1258267 0.2371643 -0.1769058 0.378013 0.9087412 
-0.4942361 -0.001807334 0.2371643 -0.3737225 0 0.9275405 
-0.47616 2.126337 -0.1849997 -0.2816312 1.374567e-07 -0.9595227 
0.47616 2.126337 -0.1849997 0.2816318 1.35831e-07 -0.9595225 
0.47616 0.126337 -0.185 0.2816312 1.374568e-07 -0.9595227 
-0.47616 0.126337 -0.185 -0.2816305 1.358311e-07 -0.959523 
0.4955455 2.148546 -0.191213 0.2439532 -0.3599162 -0.900526 
-0.4955455 2.148546 -0.191213 -0.2573247 -0.2896471 -0.9218941 
-0.5249742 2.191133 -0.2044109 -0.2399121 -0.3699773 -0.8975294 
0.5249742 2.191133 -0.2044109 0.1951737 -0.3024955 -0.9329543 
0.5308012 2.196018 0.2624185 0.870282 -0.1670958 0.4633448 
0.5308012 2.196018 -0.2026834 0.9024231 -0.2124104 -0.3748526 
0.5308012 2.236908 -0.2026834 0.8259889 0.3017524 -0.4761174 
0.5308012 2.236907 0.2624185 0.7421386 0.5637317 0.3625422 
0.4942361 2.128837 -0.1904738 0.275762 -0.2470921 -0.9289246 
-0.4942361 2.128837 -0.1904738 -0.2117422 -0.452475 -0.8662746 
-0.4942361 2.143661 -0.1904738 -0.2797733 -0.07197093 -0.9573647 
0.4942361 2.143661 -0.1904738 0.2742831 -0.1456002 -0.9505627 
-0.5269611 2.196018 0.2648852 -0.3254862 -0.2079599 0.9223945 
0.5269611 2.196018 0.2648852 0.2815944 -0.3043687 0.9099804 
0.5269611 2.236907 0.2648852 0.2757633 0.247093 0.928924 
-0.5269611 2.236907 0.2648852 -0.2117431 0.4524767 0.8662735 
-0.4953162 2.148029 0.2250115 -0.2362403 -0.6259114 0.7432532 
0.4953162 2.148029 0.2250115 0.2521915 -0.5093607 0.8227705 
0.5254583 2.191649 0.2632469 0.2471609 -0.6348953 0.731997 
-0.5254583 2.191649 0.2632469 -0.2112863 -0.5436729 0.8122672 
-0.4469239 0.126337 -0.1722519 0.8944272 -5.997605e-08 0.4472136 
-0.4469239 2.126337 -0.1722516 0.4472136 -1.199521e-07 0.8944272 
-0.4469239 2.126336 0.185 1 0 0 
-0.4469239 0.126337 0.1849997 1 0 0 
0.4469239 2.126337 -0.1722516 -0.8944272 -5.997605e-08 0.4472136 
0.4469239 0.126337 -0.1722519 -0.4472136 -1.199521e-07 0.8944272 
0.4469239 0.126337 0.1849997 -1 0 0 
0.4469239 2.126336 0.185 -1 0 0 
0.4932921 0.126337 0.2209064 0.8776287 -7.141916e-08 0.4793412 
0.4932921 0.126337 0.1874665 0.8776287 7.142742e-08 -0.4793412 
0.4932921 2.126337 0.1874668 0.8776287 7.141916e-08 -0.4793412 
0.4932921 2.126337 0.2209067 0.8776287 -7.141089e-08 0.4793412 
0.5269611 2.196018 -0.20515 0.3129872 -0.1164821 -0.9425874 
-0.5269611 2.196018 -0.20515 -0.2701706 -0.1618541 -0.9491107 
-0.5269611 2.236908 -0.20515 -0.2757641 0.2470782 -0.9289276 
0.5269611 2.236908 -0.20515 0.211745 0.4524501 -0.8662869 
-0.4932921 2.126337 0.2209067 -0.8776287 -7.141916e-08 0.4793412 
-0.4932921 2.126337 0.1874668 -0.8776287 7.142742e-08 -0.4793412 
-0.4932921 0.126337 0.1874665 -0.8776287 7.141916e-08 -0.4793412 
-0.4932921 0.126337 0.2209064 -0.8776287 -7.141089e-08 0.4793412 
-0.4942361 2.126337 -0.1880071 -0.2784503 -0.9270368 -0.2511339 
0.4942361 2.126337 -0.1880071 0.2134874 -0.8619367 -0.4598786 
0.4942361 2.126336 0.2209065 0.2784559 -0.9270324 0.2511439 
-0.4942361 2.126336 0.2209065 -0.2135021 -0.8619206 0.459902 
0.4980761 -0.001807259 -0.191213 0.9492927 0 -0.3143938 
0.4980761 0.1258268 -0.191213 0.7408011 0.3595906 -0.5673697 
0.4980761 0.1258267 0.2346976 0.8269328 0.4729367 0.3041595 
0.4980761 -0.001807334 0.2346976 0.7775771 0 0.6287876 
-0.4942361 2.128836 0.2233732 -0.2757641 -0.2470782 0.9289276 
0.4942361 2.128836 0.2233732 0.211745 -0.4524501 0.8662869 
0.4942361 2.143661 0.2233732 0.2779263 -0.1343454 0.9511616 
-0.4942361 2.143661 0.2233732 -0.2761245 -0.2624223 0.9246025 
-0.5269611 2.239408 -0.2026834 -0.1784079 0.9058034 -0.3843058 
-0.5269611 2.239407 0.2624185 -0.3348361 0.8925744 0.3019864 
0.5269611 2.239407 0.2624185 0.1783956 0.9058146 0.384285 
0.5269611 2.239408 -0.2026834 0.3348427 0.8925671 -0.3020006 
0.4894521 2.126337 0.1850001 0.1868624 1.438009e-07 -0.9823861 
0.4894521 0.126337 0.1849998 0.3737247 1.382042e-07 -0.9275397 
0.4374717 0.126337 0.1849998 -0.1868623 1.416437e-07 -0.9823862 
0.4374717 2.126336 0.1850001 -0.3737237 1.291203e-07 -0.9275401 
0.4980761 2.128836 0.2209065 0.8259889 -0.3017524 0.4761174 
0.4980761 2.128837 -0.1880071 0.7421381 -0.5637317 -0.3625434 
0.4980761 2.143661 -0.1880071 0.8715333 -0.1124583 -0.477266 
0.4980761 2.143661 0.2209065 0.8505531 -0.2697535 0.451434 
-0.4894521 0.126337 0.1849998 -0.1868624 1.438009e-07 -0.9823861 
-0.4894521 2.126337 0.1850001 -0.3737247 1.382042e-07 -0.9275397 
-0.4374717 2.126336 0.1850001 0.1868614 1.416437e-07 -0.9823863 
-0.4374717 0.126337 0.1849998 0.3737238 1.291548e-07 -0.9275401 
-0.48 0.126337 -0.1825333 -0.8776283 6.963354e-08 -0.4793417 
-0.48 0.126337 0.1849997 -1 0 0 
-0.48 2.126337 0.185 -1 0 0 
-0.48 2.126337 -0.182533 -0.8776287 7.141087e-08 -0.4793411 
0.4996516 2.14844 0.222197 0.7222116 -0.6072655 0.3311178 
0.4996516 2.148441 -0.1886145 0.7896827 -0.4252461 -0.4422296 
0.5292257 2.191239 -0.2018776 0.715632 -0.5003636 -0.487347 
0.5292256 2.191238 0.259712 0.7656466 -0.5400046 0.3495432 
-0.5308012 2.196018 -0.2026834 -0.8713334 -0.1184246 -0.4761867 
-0.5308012 2.196018 0.2624185 -0.8949346 -0.2698808 0.3553258 
-0.5308012 2.236907 0.2624185 -0.8259844 0.301767 0.4761162 
-0.5308012 2.236908 -0.2026834 -0.7421427 0.5637231 -0.3625473 
-0.4996516 2.148441 -0.1886145 -0.7439641 -0.5185772 -0.4214202 
-0.4996515 2.14844 0.222197 -0.7731839 -0.5065857 0.3815202 
-0.5292257 2.191238 0.259712 -0.6933316 -0.6134757 0.3780725 
-0.5292258 2.191239 -0.2018776 -0.7830378 -0.4415053 -0.4380924 
0.4336317 2.126336 0.2209066 -0.8776283 -6.605734e-08 0.4793418 
0.4336317 2.126336 0.1874668 -0.877628 6.425862e-08 -0.4793424 
0.4336317 0.126337 0.1874665 -0.8776283 6.605734e-08 -0.4793418 
0.4336317 0.126337 0.2209064 -0.8776287 -6.785605e-08 0.4793411 
-0.4942361 0.1258268 -0.1936797 -0.3315837 0.2970959 -0.8954253 
0.4942361 0.1258268 -0.1936797 0.1769058 0.3780131 -0.9087412 
-0.4942361 -0.001807259 -0.1936797 -0.1868613 0 -0.9823864 
0.4942361 -0.001807259 -0.1936797 0.3737225 0 -0.9275405 
-0.4296232 2.128836 0.2211307 -0.1868613 -3.442158e-07 0.9823864 
-0.4296232 2.001202 0.2211307 -0.331583 -0.2971095 0.895421 
0.4295003 2.001202 0.2211307 0.1769067 -0.3780151 0.9087402 
0.4295003 2.128836 0.2211307 0.3737225 -3.250062e-07 0.9275405 
-0.4334632 2.001202 0.218664 -0.5822703 -0.5725657 0.5771739 
-0.4296232 1.998703 0.218664 -0.2806389 -0.8789175 0.385676 
0.4295003 1.998702 0.218664 0.213726 -0.9289934 0.3021465 
0.4333403 2.001202 0.218664 0.6189041 -0.5535764 0.5572351 
0.4333403 2.128836 0.218664 0.5404612 -2.946873e-07 0.841369 
-0.4334632 2.128836 0.218664 -0.5404612 -2.948862e-07 0.841369 
-0.4334632 2.001202 0.2098546 -0.3026285 -0.4648744 -0.8320504 
-0.4296232 1.998703 0.2098546 -0.1552311 -0.8075122 -0.5690584 
0.4295003 1.998702 0.2098546 0.3568242 -0.875071 -0.3269972 
0.4333403 2.001202 0.2098546 0.1725363 -0.2650116 -0.9486834 
-0.4334632 2.128836 0.2098546 0 3.502473e-07 -1 
0.4333403 2.128836 0.2098546 0 3.502473e-07 -1 
-0.4473912 0.5223878 -0.1750112 0 1 1.385433e-06 
-0.4473912 0.5223873 0.169168 0 0.8442731 0.5359131 
0.4472682 0.5223873 0.169168 -7.140622e-08 0.8442782 0.5359053 
0.4472682 0.5223878 -0.1750112 0 1 1.385433e-06 
-0.4473912 0.5170721 0.1716678 -1.72906e-07 0.2899346 0.9570465 
0.4472682 0.5170721 0.1716681 -2.636756e-07 0.1449732 0.9894356 
-0.4473912 0.4980901 0.1716678 -2.383569e-07 -0.4472139 0.8944271 
0.4472682 0.4980901 0.1716681 -2.664909e-07 0 1 
-0.4473912 0.8923878 -0.1750112 0 1 1.385433e-06 
-0.4473912 0.8923873 0.169168 0 0.8442731 0.5359131 
0.4472682 0.8923873 0.169168 -7.140622e-08 0.8442782 0.5359053 
0.4472682 0.8923878 -0.1750112 0 1 1.385433e-06 
-0.4473912 0.8870721 0.1716678 -1.72906e-07 0.2899346 0.9570465 
0.4472682 0.8870721 0.1716681 -2.636756e-07 0.1449732 0.9894356 
-0.4473912 0.8680901 0.1716678 -2.383569e-07 -0.4472139 0.8944271 
0.4472682 0.8680901 0.1716681 -2.664909e-07 0 1 
-0.4473912 1.262388 -0.1750112 0 1 1.385433e-06 
-0.4473912 1.262387 0.169168 0 0.8442755 0.5359094 
0.4472682 1.262387 0.169168 -7.140574e-08 0.8442804 0.5359017 
0.4472682 1.262388 -0.1750112 0 1 1.385433e-06 
-0.4473912 1.257072 0.1716678 -1.729058e-07 0.2899401 0.9570448 
0.4472682 1.257072 0.1716681 -2.636755e-07 0.144976 0.9894352 
-0.4473912 1.23809 0.1716678 -2.383569e-07 -0.4472139 0.8944271 
0.4472682 1.23809 0.1716681 -2.664909e-07 0 1 
-0.4473912 1.632388 -0.1750112 0 1 1.385433e-06 
-0.4473912 1.632387 0.169168 0 0.8442709 0.5359167 
0.4472682 1.632387 0.169168 -7.14067e-08 0.8442758 0.5359089 
0.4472682 1.632388 -0.1750112 0 1 1.385433e-06 
-0.4473912 1.627072 0.1716678 -1.729062e-07 0.289929 0.9570482 
0.4472682 1.627072 0.1716681 -2.636757e-07 0.1449704 0.989436 
-0.4473912 1.60809 0.1716678 -2.383569e-07 -0.4472139 0.8944271 
0.4472682 1.60809 0.1716681 -2.664909e-07 0 1 
-0.4473912 0.4980906 -0.1725114 0 -1 -1.385433e-06 
0.4472682 0.4980906 -0.1725114 0 -1 -1.385433e-06 
0.4472682 0.4980901 0.1716678 0 -1 -1.385433e-06 
-0.4473912 0.8680906 -0.1725114 0 -1 -1.385433e-06 
0.4472682 0.8680906 -0.1725114 0 -1 -1.385433e-06 
0.4472682 0.8680901 0.1716678 0 -1 -1.385433e-06 
-0.4473912 1.238091 -0.1725114 0 -1 -1.385433e-06 
0.4472682 1.238091 -0.1725114 0 -1 -1.385433e-06 
0.4472682 1.23809 0.1716678 0 -1 -1.385433e-06 
-0.4473912 1.608091 -0.1725114 0 -1 -1.385433e-06 
0.4472682 1.608091 -0.1725114 0 -1 -1.385433e-06 
0.4472682 1.60809 0.1716678 0 -1 -1.385433e-06 
3 0 1 2 
3 0 2 3 
3 4 5 6 
3 4 6 7 
3 8 9 10 
3 8 10 11 
3 12 13 14 
3 12 14 15 
3 16 17 18 
3 16 18 19 
3 20 21 22 
3 20 22 23 
3 24 25 26 
3 24 26 27 
3 28 29 30 
3 28 30 31 
3 32 33 34 
3 32 34 35 
3 36 37 38 
3 36 38 39 
3 40 41 42 
3 40 42 43 
3 44 45 46 
3 44 46 47 
3 48 49 50 
3 48 50 51 
3 52 53 54 
3 52 54 55 
3 56 57 58 
3 56 58 59 
3 60 61 62 
3 60 62 63 
3 57 56 61 
3 57 61 60 
3 64 65 66 
3 64 66 67 
3 68 69 70 
3 68 70 71 
3 72 73 74 
3 72 74 75 
3 76 77 78 
3 76 78 79 
3 80 81 82 
3 80 82 83 
3 84 85 86 
3 84 86 87 
3 88 89 90 
3 88 90 91 
3 92 93 94 
3 92 94 95 
3 96 97 98 
3 96 98 99 
3 100 101 102 
3 100 102 103 
3 104 105 106 
3 104 106 107 
3 108 109 110 
3 108 110 111 
3 112 113 114 
3 112 114 115 
3 116 117 118 
3 116 118 119 
3 120 121 122 
3 120 122 123 
3 45 76 4 
3 84 5 79 
3 44 97 77 
3 85 78 96 
3 68 41 110 
3 68 110 39 
3 69 38 119 
3 69 119 112 
3 48 113 118 
3 48 118 55 
3 49 54 111 
3 49 111 40 
3 124 14 21 
3 125 20 81 
3 29 82 23 
3 30 22 13 
3 109 98 47 
3 109 47 36 
3 99 108 53 
3 99 53 86 
3 37 46 7 
3 37 7 116 
3 87 52 117 
3 87 117 6 
3 71 91 42 
3 70 115 88 
3 51 89 114 
3 50 43 90 
3 32 35 104 
3 32 104 107 
3 77 76 45 
3 77 45 44 
3 79 78 85 
3 79 85 84 
3 78 77 97 
3 78 97 96 
3 34 33 16 
3 34 16 19 
3 5 4 76 
3 5 76 79 
3 39 38 69 
3 39 69 68 
3 55 54 49 
3 55 49 48 
3 111 110 41 
3 111 41 40 
3 21 20 125 
3 21 125 124 
3 23 22 30 
3 23 30 29 
3 14 13 22 
3 14 22 21 
3 113 112 119 
3 113 119 118 
3 82 81 20 
3 82 20 23 
3 15 14 124 
3 15 124 126 
3 13 12 31 
3 13 31 30 
3 127 125 81 
3 127 81 80 
3 83 82 29 
3 83 29 28 
3 36 39 110 
3 36 110 109 
3 86 85 96 
3 86 96 99 
3 116 119 38 
3 116 38 37 
3 6 5 84 
3 6 84 87 
3 118 117 52 
3 118 52 55 
3 4 7 46 
3 4 46 45 
3 54 53 108 
3 54 108 111 
3 44 47 98 
3 44 98 97 
3 117 116 7 
3 117 7 6 
3 53 52 87 
3 53 87 86 
3 37 36 47 
3 37 47 46 
3 109 108 99 
3 109 99 98 
3 0 3 72 
3 0 72 75 
3 8 11 64 
3 8 64 67 
3 24 27 2 
3 24 2 1 
3 120 123 10 
3 120 10 9 
3 74 73 101 
3 74 101 100 
3 66 65 93 
3 66 93 92 
3 103 102 26 
3 103 26 25 
3 95 94 122 
3 95 122 121 
3 71 70 88 
3 71 88 91 
3 51 50 90 
3 51 90 89 
3 43 42 91 
3 43 91 90 
3 89 88 115 
3 89 115 114 
3 40 43 50 
3 40 50 49 
3 114 113 48 
3 114 48 51 
3 70 69 112 
3 70 112 115 
3 68 71 42 
3 68 42 41 
3 126 124 125 
3 126 125 127 
3 128 129 130 
3 128 130 131 
3 129 132 133 
3 130 134 135 
3 133 134 130 
3 133 130 129 
3 135 136 131 
3 135 131 130 
3 137 132 129 
3 137 129 128 
3 133 132 138 
3 133 138 139 
3 134 133 139 
3 134 139 140 
3 135 134 140 
3 135 140 141 
3 138 142 143 
3 138 143 141 
3 139 138 141 
3 139 141 140 
3 144 145 146 
3 144 146 147 
3 148 149 146 
3 148 146 145 
3 149 148 150 
3 149 150 151 
3 152 153 154 
3 152 154 155 
3 156 157 154 
3 156 154 153 
3 157 156 158 
3 157 158 159 
3 160 161 162 
3 160 162 163 
3 164 165 162 
3 164 162 161 
3 165 164 166 
3 165 166 167 
3 168 169 170 
3 168 170 171 
3 172 173 170 
3 172 170 169 
3 173 172 174 
3 173 174 175 
3 176 177 178 
3 176 178 150 
3 179 180 181 
3 179 181 158 
3 182 183 184 
3 182 184 166 
3 185 186 187 
3 185 187 174 
